<svg id="main_svg" xmlns="http://www.w3.org/2000/svg" width="600" height="838"><g id="svg_g_bezier_cells"><path d="M 357.36262906624097 1 L 360.93548007563913 65.22652700001234 L 466.80834700349783 118.96326440497876 L 599 52.02602383193261 L 599 1 L 357.36262906624097 1 Z" fill="#221155" fill-opacity="0.2"/><path d="M 33.416163761424016 1 L 99.99707793884227 125.39020146386123 L 132.16679676882114 116.61772027056601 L 163.79400340257868 82.48351154658063 L 166.00286098259244 1 L 33.416163761424016 1 Z" fill="#221155" fill-opacity="0.2"/><path d="M 165.8083520497233 81.98130109121658 L 299.6842606616232 94.90863669822298 L 357.9516400341286 66.48524469203974 L 358.94604840708587 65.4720920865365 L 355.3595368821929 1 L 168.0035956930026 1 L 165.8083520497233 81.98130109121658 Z" fill="#221155" fill-opacity="0.2"/><path d="M 1 184.45919708417432 L 33.645420110827644 186.70673817856644 L 98.24698079198771 126.35867554708265 L 31.147682617605266 1 L 1 1 L 1 184.45919708417432 Z" fill="#221155" fill-opacity="0.2"/><path d="M 134.05315387588388 117.52450077892411 L 232.77313099769395 229.70666286321642 L 298.3317309317778 96.78733622006371 L 165.1803283295306 83.9299604171265 L 134.05315387588388 117.52450077892411 Z" fill="#221155" fill-opacity="0.2"/><path d="M 467.9046887126143 120.6499052363917 L 485.9187134128872 239.7813946316274 L 599 226.9499970749003 L 599.0000000000001 54.26781385067982 L 467.9046887126143 120.6499052363917 Z" fill="#221155" fill-opacity="0.2"/><path d="M 234.60646037542907 230.51098434918157 L 306.8933896308126 282.74199069477123 L 340.99448780774327 283.50015054556013 L 345.2389958403046 279.8567619245087 L 357.44769455475904 68.95634565723917 L 300.61469182695345 96.68003484349323 L 234.60646037542907 230.51098434918157 Z" fill="#221155" fill-opacity="0.2"/><path d="M 347.2914631929674 279.0082493040266 L 483.28649218810506 241.93711116103432 L 484.0319148839106 240.6803824358493 L 465.89604307929613 120.74308605076817 L 360.169612164724 67.08067357740089 L 359.5213907188642 67.74111375939881 L 347.2914631929674 279.0082493040266 Z" fill="#221155" fill-opacity="0.2"/><path d="M 35.29327101707227 187.90428198716404 L 97.40305070111756 287.8891655603289 L 122.72948651464773 299.1066690062173 L 230.86494254204132 230.56568824046593 L 132.36722403358536 118.63609359505337 L 99.99326089945089 127.46427093311475 L 35.29327101707227 187.90428198716404 Z" fill="#221155" fill-opacity="0.2"/><path d="M 485.0116357631465 242.94902758336232 L 521.0558294714954 383.7267546651741 L 599.0000000000002 375.37229809733753 L 599.0000000000002 228.96283146379136 L 485.68057100279725 241.82125117450346 L 485.0116357631465 242.94902758336232 Z" fill="#221155" fill-opacity="0.2"/><path d="M 1 371.09272019397235 L 95.41878547573761 288.48512028136975 L 33.43105594795461 188.69671415066333 L 1 186.46393139797996 L 1 371.09272019397235 Z" fill="#221155" fill-opacity="0.2"/><path d="M 124.08028948012499 300.618388138068 L 170.67697759930167 404.4615039307461 L 207.54718488030403 417.65359698230674 L 305.15976369340416 283.956809521142 L 232.9922006737448 231.81205139054475 L 232.6582424582833 231.7969334546445 L 124.08028948012499 300.618388138068 Z" fill="#221155" fill-opacity="0.2"/><path d="M 342.53798111037236 284.8110139282652 L 381.3329205291976 387.71043117657706 L 513.1799158174412 391.91294857265495 L 519.2073356976346 384.5704644552421 L 483.22320796265325 244.02733691182024 L 346.6931370039682 281.24432313977195 L 342.53798111037236 284.8110139282652 Z" fill="#221155" fill-opacity="0.2"/><path d="M 1 450.8586021535138 L 61.35641744396321 469.85788795073563 L 168.66468469801598 404.86226577380336 L 122.05787692489677 300.9965978118927 L 96.89458005611033 289.85135134240227 L 1 373.75013338189143 L 1 450.8586021535138 Z" fill="#221155" fill-opacity="0.2"/><path d="M 209.16798783470477 418.8253841086534 L 240.33647063970525 458.56999222998957 L 337.73993792340923 465.8745360837559 L 379.53627115071896 388.6142925822088 L 340.65774027893485 285.49315796752757 L 307.05976773391126 284.7461839633656 L 209.16798783470477 418.8253841086534 Z" fill="#221155" fill-opacity="0.2"/><path d="M 339.487865888744 466.84680045697047 L 391.662429666325 539.8576636080263 L 505.8911069940781 485.53538241307155 L 512.5672899989373 393.89443732192234 L 381.2186071669383 389.70780323635506 L 339.487865888744 466.84680045697047 Z" fill="#221155" fill-opacity="0.2"/><path d="M 507.8784435612761 485.78196275164515 L 599 570.2804488467656 L 598.9999999999998 377.38375394175944 L 520.8151210005921 385.7640108799384 L 514.6146340638597 393.3173218750443 L 507.8784435612761 485.78196275164515 Z" fill="#221155" fill-opacity="0.2"/><path d="M 62.720740455865105 471.36978698963844 L 106.6937181178437 585.9564686953103 L 195.56035714145818 600.3452977371641 L 238.71253428923507 459.74022174989835 L 207.3053518014413 419.6912348299322 L 170.05011645934417 406.36137943896523 L 62.720740455865105 471.36978698963844 Z" fill="#221155" fill-opacity="0.2"/><path d="M 197.36841815241664 601.2707011075865 L 227.00272624749303 639.7071841216265 L 385.0608810936577 585.7438782364807 L 390.29724295388326 541.3871638634722 L 337.76972065235486 467.882385581668 L 240.543457872491 460.5911307627328 L 197.36841815241664 601.2707011075865 Z" fill="#221155" fill-opacity="0.2"/><path d="M 1 650.8304636920199 L 29.38519847420743 646.3189701464883 L 104.76948939665373 586.5244947083354 L 60.72692577195776 471.756482899836 L 1 452.9553515440126 L 1 650.8304636920199 Z" fill="#221155" fill-opacity="0.2"/><path d="M 387.01766443524 586.2276050808416 L 430.6501799500479 649.0625022811964 L 598.9999999999992 625.4902057914427 L 598.9999999999995 573.0080229662195 L 506.6633592668346 487.3827696453079 L 392.2640230809521 541.7862089057907 L 387.01766443524 586.2276050808416 Z" fill="#221155" fill-opacity="0.2"/><path d="M 227.66196265669814 641.595462964259 L 229.2497040535424 723.8749135029839 L 232.93561156961786 730.9686546769225 L 314.85445819821626 744.9113857843159 L 425.05293578386943 669.7409463051335 L 429.11260190969796 650.3547368459537 L 385.58913306378474 587.6768770327217 L 227.66196265669814 641.595462964259 Z" fill="#221155" fill-opacity="0.2"/><path d="M 31.238116138079423 647.4020145724602 L 104.14653006168847 732.1136506423665 L 227.23629584692685 723.1993726493127 L 225.65461876438906 641.2341851574681 L 195.71031095572172 602.3956242988039 L 106.24189597574674 587.9093587897596 L 31.238116138079423 647.4020145724602 Z" fill="#221155" fill-opacity="0.2"/><path d="M 426.98482757080683 670.273348103679 L 458.16799150036354 759.8041611988367 L 599.0000000000001 771.9123040832394 L 599.0000000000002 627.5097161529155 L 431.0143635537869 651.0310197524987 L 426.98482757080683 670.273348103679 Z" fill="#221155" fill-opacity="0.2"/><path d="M 1 774.3579812311458 L 68.01551576440154 796.0136659497753 L 102.50624340975381 733.2737522076478 L 29.407163386321862 648.3405828963791 L 1 652.855567506429 L 1 774.3579812311458 Z" fill="#221155" fill-opacity="0.2"/><path d="M 316.5714879512833 746.1611368896893 L 394.6133055000171 837.0000000000007 L 411.132716088622 837.0000000000007 L 456.3396213814253 760.6352606546797 L 425.43419737674037 671.9018740605313 L 316.5714879512833 746.1611368896893 Z" fill="#221155" fill-opacity="0.2"/><path d="M 69.60849239658346 797.2675584313193 L 87.15635121586881 837.0000000000001 L 211.0578647199213 837 L 231.22992587569348 732.023669672452 L 227.67040756579928 725.1731718007177 L 104.33128584049064 734.1055083882841 L 69.60849239658346 797.2675584313193 Z" fill="#221155" fill-opacity="0.2"/><path d="M 598.9999999999999 773.919682309778 L 457.9771680243161 761.7951332266831 L 413.4568917957096 837 L 598.9999999999998 837.0000000000001 L 598.9999999999999 773.919682309778 Z" fill="#221155" fill-opacity="0.2"/><path d="M 391.97657003194485 837 L 314.56112684545195 746.8902220998309 L 233.0748486706584 733.0211149005509 L 213.09445478004943 837 L 391.97657003194485 837 Z" fill="#221155" fill-opacity="0.2"/><path d="M 84.96997951780567 836.9999999999999 L 67.76017078133962 798.0329825951005 L 1 776.4598111629032 L 1 837 L 84.96997951780567 836.9999999999999 Z" fill="#221155" fill-opacity="0.2"/></g><g id="svg_g_seeds"><circle id="c_0" cx="233.46505587129909" cy="33.44603310111604" r="3" stroke="black" stroke-width="2" fill="#1F7BFD"/><circle id="c_1" cx="310.87553138156164" cy="819.1412800401707" r="3" stroke="black" stroke-width="2" fill="#1F7BFD"/><circle id="c_2" cx="148" cy="503" r="3" stroke="black" stroke-width="2" fill="#1F7BFD"/><circle id="c_3" cx="19.209912175603527" cy="831.3707136040888" r="3" stroke="black" stroke-width="2" fill="#1F7BFD"/><circle id="c_4" cx="556.8407817519595" cy="167.22222519167315" r="3" stroke="black" stroke-width="2" fill="#1F7BFD"/><circle id="c_5" cx="589.0541075450626" cy="460.1749497771201" r="3" stroke="black" stroke-width="2" fill="#1F7BFD"/><circle id="c_6" cx="506.88605689445" cy="711.443923366862" r="3" stroke="black" stroke-width="2" fill="#1F7BFD"/><circle id="c_7" cx="148.0882706670368" cy="210.24582625587618" r="3" stroke="black" stroke-width="2" fill="#1F7BFD"/><circle id="c_8" cx="291.452265951215" cy="547.0259894538763" r="3" stroke="black" stroke-width="2" fill="#1F7BFD"/><circle id="c_9" cx="394.7368619242603" cy="191.73416599432045" r="3" stroke="black" stroke-width="2" fill="#1F7BFD"/><circle id="c_10" cx="119.39236760070094" cy="679.6831848758449" r="3" stroke="black" stroke-width="2" fill="#1F7BFD"/><circle id="c_11" cx="432.98898673903176" cy="332.0616305368098" r="3" stroke="black" stroke-width="2" fill="#1F7BFD"/><circle id="c_12" cx="303.9238792554692" cy="380.7215079180991" r="3" stroke="black" stroke-width="2" fill="#1F7BFD"/><circle id="c_13" cx="19.30874572241761" cy="72.38956488750304" r="3" stroke="black" stroke-width="2" fill="#1F7BFD"/><circle id="c_14" cx="482.09757246690486" cy="19.614879847451277" r="3" stroke="black" stroke-width="2" fill="#1F7BFD"/><circle id="c_15" cx="487.0982305507661" cy="570.1222237358172" r="3" stroke="black" stroke-width="2" fill="#1F7BFD"/><circle id="c_16" cx="222.73604686817222" cy="144.55599979992914" r="3" stroke="black" stroke-width="2" fill="#1F7BFD"/><circle id="c_17" cx="126.93224961488684" cy="783.7950727817038" r="3" stroke="black" stroke-width="2" fill="#1F7BFD"/><circle id="c_18" cx="335.32073250619607" cy="675.5164287603311" r="3" stroke="black" stroke-width="2" fill="#1F7BFD"/><circle id="c_19" cx="3.64010118567637" cy="299.97583004875804" r="3" stroke="black" stroke-width="2" fill="#1F7BFD"/><circle id="c_20" cx="18.627813112204894" cy="552.6469589608226" r="3" stroke="black" stroke-width="2" fill="#1F7BFD"/><circle id="c_21" cx="98.88120296354094" cy="29.797729806371414" r="3" stroke="black" stroke-width="2" fill="#1F7BFD"/><circle id="c_22" cx="308.2369070881243" cy="186.72681747363293" r="3" stroke="black" stroke-width="2" fill="#1F7BFD"/><circle id="c_23" cx="429.27649434228135" cy="448.53490629262257" r="3" stroke="black" stroke-width="2" fill="#1F7BFD"/><circle id="c_24" cx="214.98461900791966" cy="315.7865852819474" r="3" stroke="black" stroke-width="2" fill="#1F7BFD"/><circle id="c_25" cx="571.5205054048015" cy="296.592547486485" r="3" stroke="black" stroke-width="2" fill="#1F7BFD"/><circle id="c_26" cx="48.51432745592818" cy="740.6854949328107" r="3" stroke="black" stroke-width="2" fill="#1F7BFD"/><circle id="c_27" cx="388.05959313817044" cy="752.8306255577975" r="3" stroke="black" stroke-width="2" fill="#1F7BFD"/><circle id="c_28" cx="497.74518777184113" cy="817.7630319419357" r="3" stroke="black" stroke-width="2" fill="#1F7BFD"/><circle id="c_29" cx="73.1541985851325" cy="379.42901180010756" r="3" stroke="black" stroke-width="2" fill="#1F7BFD"/></g></svg>